<svg xmlns="http://www.w3.org/2000/svg" width="640" height="360" viewBox="0 0 640 360">
  <defs>
    <linearGradient id="g" x1="0" x2="1" y1="0" y2="1">
      <stop offset="0" stop-color="#111827"/>
      <stop offset="1" stop-color="#4b5563"/>
    </linearGradient>
  </defs>
  <rect width="640" height="360" fill="url(#g)"/>
  <g fill="none" stroke="#f8fafc" stroke-width="10" stroke-linecap="round" stroke-linejoin="round" opacity="0.95">
    <path d="M120 230c16-30 40-54 72-70 44-22 126-26 190-22 58 4 96 18 126 40 26 20 40 42 46 62"/>
    <path d="M150 240h330c18 0 34 9 44 24l22 32H104l22-32c10-15 26-24 44-24z"/>
    <circle cx="210" cy="290" r="28"/>
    <circle cx="420" cy="290" r="28"/>
    <path d="M248 202h102"/>
  </g>
  <text x="32" y="54" fill="#f8fafc" font-family="ui-sans-serif, system-ui" font-size="28" font-weight="700">Honda Civic</text>
  <text x="32" y="88" fill="#e5e7eb" font-family="ui-sans-serif, system-ui" font-size="16">placeholder image</text>
</svg>
