<svg xmlns="http://www.w3.org/2000/svg" width="640" height="360" viewBox="0 0 640 360">
  <defs>
    <linearGradient id="g" x1="0" x2="1" y1="0" y2="1">
      <stop offset="0" stop-color="#0b1220"/>
      <stop offset="1" stop-color="#1f2937"/>
    </linearGradient>
  </defs>
  <rect width="640" height="360" fill="url(#g)"/>
  <g fill="none" stroke="#f8fafc" stroke-width="10" stroke-linecap="round" stroke-linejoin="round" opacity="0.95">
    <path d="M120 220c18-34 46-60 84-76 56-24 142-24 206-20 62 4 104 18 144 46 28 20 44 44 52 72"/>
    <path d="M132 238h380c22 0 42 12 54 30l18 26H60l18-26c12-18 32-30 54-30z"/>
    <circle cx="210" cy="290" r="30"/>
    <circle cx="470" cy="290" r="30"/>
    <path d="M250 192h150"/>
  </g>
  <text x="32" y="54" fill="#f8fafc" font-family="ui-sans-serif, system-ui" font-size="28" font-weight="700">Toyota RAV4</text>
  <text x="32" y="88" fill="#e5e7eb" font-family="ui-sans-serif, system-ui" font-size="16">placeholder image</text>
</svg>
